<svg width="1024" height="512" viewBox="0 0 1024 512" fill="none" xmlns="http://www.w3.org/2000/svg">
<path d="M222.001 363.728C277.227 363.728 322 318.956 322 263.728C322 208.5 277.227 163.728 222.001 163.728C166.771 163.728 122 208.5 122 263.728C122 318.956 166.771 363.728 222.001 363.728Z"
      stroke="#BE264C" stroke-width="13" stroke-miterlimit="13"/>
<path d="M542.001 364C597.227 364 642 319.451 642 264.5C642 209.548 597.227 165 542.001 165C486.771 165 442 209.548 442 264.5C442 319.451 486.771 364 542.001 364Z"
      fill="#1E1E1E" stroke="#1E1E1E" stroke-width="13" stroke-miterlimit="13"/>
<path d="M822.001 364C877.227 364 922 319.227 922 264C922 208.772 877.227 164 822.001 164C766.771 164 722 208.772 722 264C722 319.227 766.771 364 822.001 364Z"
      stroke="#1E1E1E" stroke-width="13" stroke-miterlimit="13"/>
<path d="M362 164V364" stroke="#BE264C" stroke-width="13" stroke-miterlimit="13"/>
<path d="M402 134V394" stroke="#1E1E1E" stroke-width="13" stroke-miterlimit="13"/>
<path d="M682 134V394" stroke="#1E1E1E" stroke-width="13" stroke-miterlimit="13"/>
</svg>
