<svg width="503" height="242" viewBox="0 0 503 242" fill="none" xmlns="http://www.w3.org/2000/svg">
  <path d="M502.21 0.892624H0.547501V241.268H502.21V0.892624Z" fill=""/>
  <path d="M115.411 167.507C140.573 167.507 160.972 146.828 160.972 121.319C160.972 95.8103 140.573 75.131 115.411 75.131C90.2481 75.131 69.8495 95.8103 69.8495 121.319C69.8495 146.828 90.2481 167.507 115.411 167.507Z"
        stroke="#BE264C" stroke-width="7" stroke-miterlimit="10"/>
  <path d="M251.144 167.676C276.306 167.676 296.705 146.996 296.705 121.488C296.705 95.9791 276.306 75.2999 251.144 75.2999C225.981 75.2999 205.583 95.9791 205.583 121.488C205.583 146.996 225.981 167.676 251.144 167.676Z"
        fill="" stroke="black" stroke-width="7" stroke-miterlimit="10"/>
  <path d="M372.033 167.676C397.195 167.676 417.594 146.996 417.594 121.488C417.594 95.9791 397.195 75.2999 372.033 75.2999C346.87 75.2999 326.472 95.9791 326.472 121.488C326.472 146.996 346.87 167.676 372.033 167.676Z"
        fill="" stroke="black" stroke-width="7" stroke-miterlimit="10"/>
  <path d="M176.041 72.7769V169.99" stroke="#BE264C" stroke-width="7" stroke-miterlimit="10"/>
  <path d="M190.944 51.3219V190.998" stroke="black" stroke-width="7" stroke-miterlimit="10"/>
  <path d="M311.363 51.2325V190.909" stroke="black" stroke-width="7" stroke-miterlimit="10"/>
</svg>
